# xmcd
#
# Track frame offsets:
#	150
#	13352
#	30116
#	48531
#	63376
#	80660
#	97269
#	110817
#	125369
#	145051
#	162764
#	184704
#	207175
#	221326
#	235399
#	261439
#
# Disc length: 3491 seconds
#
# Revision: 1
# Processed by: cddbd v1.5.2PL0 Copyright (c) Steve Scherf et al.
# Submitted via: audiograbber 1.83.01
#
DISCID=e80da110
DTITLE=Gal Country Volume 1 - ASK10d1
DYEAR=2003
DGENRE=Karaoke
TTITLE0=Edwards, Meredith - A Rose Is A Rose
TTITLE1=Harris,   Emmylou - Boulder To Birmingham
TTITLE2=Messina,  Jo Dee - Burn
TTITLE3=Messina,  Jo Dee - Dare To Dream
TTITLE4=Messina, Jo Dee - Downtime
TTITLE5=McEntire, Reba - For My Broken Heart
TTITLE6=O'Neal, Jamie - Frantic
TTITLE7=Parton, Dolly - Hello God
TTITLE8=Rimes, LeAnn - How Do I Live
TTITLE9=Wright, Chely  - I Could Never Love You Enough
TTITLE10=Evans, Sara  - I Keep Looking
TTITLE11=Womack, Lee Ann - I Know Why The River Runs
TTITLE12=Dixie Chicks - If I Fall You're Going Down With Me
TTITLE13=McEntire, Reba - I'm A Survivor
TTITLE14=Wright, Chely  - Jezebel
TTITLE15=Data - Data Track
EXTD=
EXTT0=
EXTT1=
EXTT2=
EXTT3=
EXTT4=
EXTT5=
EXTT6=
EXTT7=
EXTT8=
EXTT9=
EXTT10=
EXTT11=
EXTT12=
EXTT13=
EXTT14=
EXTT15=
PLAYORDER=
